<svg xmlns="http://www.w3.org/2000/svg" viewBox="0 0 308 308"><defs><style>.cls-1{fill:#f95738;}.cls-2{fill:#fff;}</style></defs><g id="Layer_2" data-name="Layer 2"><g id="Layer_4" data-name="Layer 4"><rect class="cls-1" width="308" height="308" rx="48.91"/><path class="cls-2" d="M192.37,260.5a6.24,6.24,0,0,1-6.28-6.18V176.94a1.23,1.23,0,0,0-1.28-1.18H123.19a1.23,1.23,0,0,0-1.28,1.18v77.38a6.24,6.24,0,0,1-6.28,6.18H56.39a6.24,6.24,0,0,1-6.28-6.18V139.8a1.24,1.24,0,0,0-1.28-1.18H47.55a6.19,6.19,0,0,1-6-4.28,6,6,0,0,1,2.2-6.84L150.22,48.74a6.38,6.38,0,0,1,7.56,0L264.23,127.5a6,6,0,0,1,2.2,6.84,6.19,6.19,0,0,1-6,4.28h-1.28a1.24,1.24,0,0,0-1.28,1.18V254.32a6.24,6.24,0,0,1-6.28,6.18ZM153.89,110.71a1.32,1.32,0,0,0-.84.29l-25.34,20.55a1.07,1.07,0,0,0-.38,1.25,1.21,1.21,0,0,0,1.22.82h50.68a1.2,1.2,0,0,0,1.22-.82,1.06,1.06,0,0,0-.37-1.25L154.74,111A1.37,1.37,0,0,0,153.89,110.71Z"/><path class="cls-1" d="M154,50a3.85,3.85,0,0,1,2.29.75l106.45,78.76a3.67,3.67,0,0,1-2.29,6.61h-1.28a3.72,3.72,0,0,0-3.78,3.68V254.32a3.73,3.73,0,0,1-3.78,3.68H192.37a3.74,3.74,0,0,1-3.78-3.68V176.94a3.73,3.73,0,0,0-3.78-3.68H123.19a3.73,3.73,0,0,0-3.78,3.68v77.38a3.74,3.74,0,0,1-3.78,3.68H56.39a3.73,3.73,0,0,1-3.78-3.68V139.8a3.72,3.72,0,0,0-3.78-3.68H47.55a3.67,3.67,0,0,1-2.29-6.61L151.71,50.75A3.85,3.85,0,0,1,154,50m-25.45,86.12h50.68a3.67,3.67,0,0,0,2.42-6.51l-25.34-20.55a3.87,3.87,0,0,0-4.84,0l-25.34,20.55a3.67,3.67,0,0,0,2.42,6.51M154,45a8.8,8.8,0,0,0-5.26,1.73L42.29,125.49a8.49,8.49,0,0,0-3.09,9.63,8.75,8.75,0,0,0,8.35,6h.06v113.2A8.74,8.74,0,0,0,56.39,263h59.24a8.74,8.74,0,0,0,8.78-8.68V178.26h59.18v76.06a8.74,8.74,0,0,0,8.78,8.68h59.24a8.74,8.74,0,0,0,8.78-8.68V141.12h.06a8.75,8.75,0,0,0,8.35-6,8.49,8.49,0,0,0-3.09-9.63L159.26,46.73A8.8,8.8,0,0,0,154,45Zm-21.79,86.12,21.68-17.59,21.68,17.59Z"/><path class="cls-2" d="M175.15,223.35a7.72,7.72,0,1,1,7.87-7.72A7.79,7.79,0,0,1,175.15,223.35Z"/><path class="cls-1" d="M175.15,210.41a5.22,5.22,0,1,1-5.36,5.22,5.3,5.3,0,0,1,5.36-5.22m0-5a10.22,10.22,0,1,0,10.37,10.22,10.3,10.3,0,0,0-10.37-10.22Z"/></g></g></svg>