<svg xmlns="http://www.w3.org/2000/svg" viewBox="0 0 880.31 152"><defs><style>.cls-1{fill:#f95738;}.cls-2{fill:none;stroke:#f95738;stroke-miterlimit:10;stroke-width:5px;}</style></defs><g id="Layer_2" data-name="Layer 2"><g id="Layer_4" data-name="Layer 4"><path class="cls-1" d="M41.58,34.64V67h64.89V99.11H41.58v50.4H0V2.51H115.29V34.64Z"/><path class="cls-1" d="M134.82,2.51H176.4v114h70.14v33H134.82Z"/><path class="cls-1" d="M453.6,35.48H408.45v-33H540.12v33H495.18v114H453.6Z"/><path class="cls-1" d="M589,35.48H543.89v-33H675.56v33H630.62v114H589Z"/><path class="cls-1" d="M691.1,2.51h41.58v147H691.1Z"/><path class="cls-1" d="M880.31,117.38v32.13h-118V2.51H877.58V34.64H803.45V59.42h65.31V90.5H803.45v26.88Z"/><path class="cls-2" d="M329.42,3,254.19,58.69a2.59,2.59,0,0,0,1.61,4.67h.91a2.64,2.64,0,0,1,2.67,2.6V146.9a2.64,2.64,0,0,0,2.67,2.6h41.87a2.64,2.64,0,0,0,2.67-2.6V92.21a2.64,2.64,0,0,1,2.67-2.6h43.55a2.64,2.64,0,0,1,2.67,2.6V146.9a2.64,2.64,0,0,0,2.68,2.6H400a2.63,2.63,0,0,0,2.67-2.6V66a2.64,2.64,0,0,1,2.68-2.6h.9a2.59,2.59,0,0,0,1.62-4.67L332.65,3A2.72,2.72,0,0,0,329.42,3Z"/><path class="cls-2" d="M311.34,58.76l17.91-14.52a2.74,2.74,0,0,1,3.42,0l17.91,14.52a2.59,2.59,0,0,1-1.71,4.6H313.05A2.59,2.59,0,0,1,311.34,58.76Z"/><ellipse class="cls-1" cx="345.4" cy="119.56" rx="3.79" ry="3.69"/></g></g></svg>